<?xml version="1.0" encoding="UTF-8"?>
<svg id="Layer_1" data-name="Layer 1" xmlns="http://www.w3.org/2000/svg" viewBox="0 0 1080 1080">
  <defs>
    <style>
      .cls-1 {
        fill: #fff;
      }

      .cls-2 {
        fill: #231f20;
      }
    </style>
  </defs>
  <rect class="cls-2" x="2.36" y="2.45" width="1078.47" height="1081.53"/>
  <g>
    <path class="cls-1" d="m290.25,586.07c0,9.24-2.83,17.17-8.5,23.78-5.67,6.61-12.5,9.92-20.51,9.92h-36.37c-3.67,0-6.65-2.98-6.65-6.65v-13.66c0-3.67,2.98-6.65,6.65-6.65h36.37c1.56,0,2.92-.64,4.08-1.92,1.17-1.28,1.75-2.86,1.75-4.72s-.58-3.47-1.75-4.81-2.53-2.02-4.08-2.02h-16.34c-8-.13-14.81-3.43-20.42-9.92-5.61-6.48-8.42-14.34-8.42-23.58s2.83-17.33,8.5-23.88c5.67-6.55,12.56-9.82,20.67-9.82h32.53c3.67,0,6.65,2.98,6.65,6.65v13.66c0,3.67-2.98,6.65-6.65,6.65h-32.53c-1.67,0-3.06.64-4.17,1.93-1.11,1.28-1.67,2.86-1.67,4.72s.56,3.47,1.67,4.81c1.11,1.35,2.5,2.02,4.17,2.02h16.17c8,0,14.81,3.27,20.42,9.82,5.61,6.55,8.42,14.44,8.42,23.68Z"/>
    <g>
      <path class="cls-1" d="m399.58,572.61c0,14.27-4.73,25.92-14.19,34.94-9.46,9.03-21.61,13.54-36.45,13.54s-26.77-4.51-36.23-13.54c-9.46-9.02-14.19-20.67-14.19-34.94v-55.22c0-3.03,2.46-5.49,5.49-5.49h14.34c3.03,0,5.49,2.46,5.49,5.49v54.56c0,7.42,2.33,13.47,6.98,18.12,4.65,4.66,10.69,6.99,18.12,6.99s13.49-2.29,18.22-6.88c4.73-4.59,7.09-10.66,7.09-18.23v-54.56c0-3.03,2.46-5.49,5.49-5.49h14.34c3.03,0,5.49,2.46,5.49,5.49v55.22Z"/>
      <path class="cls-1" d="m427.24,511.9c3.08,0,5.72,2.2,6.26,5.23l12.23,67.69c.72,3.94,2.2,7.11,4.44,9.52,2.24,2.41,4.87,3.61,7.9,3.61,6.49,0,10.61-4.37,12.34-13.12l12.23-67.69c.55-3.03,3.18-5.23,6.26-5.23h12.99c3.99,0,6.99,3.63,6.25,7.55l-13.41,70.63c-1.6,9.03-5.86,16.45-12.77,22.27-6.91,5.82-14.95,8.74-24.12,8.74s-16.92-2.87-23.68-8.63c-6.77-5.75-11.02-13.21-12.77-22.38l-13.41-70.63c-.74-3.92,2.26-7.55,6.25-7.55h12.99Z"/>
      <path class="cls-1" d="m516.78,558.29c0-14.29,4.69-25.93,14.08-34.9,9.38-8.97,21.5-13.46,36.34-13.46s26.99,4.45,36.45,13.35c9.46,8.9,14.19,20.57,14.19,35.01v56.81c0,2.22-1.8,4.02-4.02,4.02h-17.27c-2.22,0-4.02-1.8-4.02-4.02v-56.18c0-7.29-2.37-13.35-7.09-18.17-4.73-4.82-10.73-7.23-18.01-7.23s-13.68,2.34-18.33,7c-4.66,4.67-6.98,10.8-6.98,18.39v56.18c0,2.22-1.8,4.02-4.02,4.02h-17.27c-2.22,0-4.02-1.8-4.02-4.02v-56.81Z"/>
      <path class="cls-1" d="m637.47,461.67h18.58c1.8,0,3.26,1.46,3.27,3.26l.2,83.01c0,1.8,1.47,3.26,3.27,3.26h1.13c9.5,0,17.88-2.8,25.12-8.41,7.2-5.57,11.25-12.11,12.16-19.63.01-.09.02-.18.02-.27l.47-7.93c.1-1.73,1.53-3.08,3.26-3.08h19.21c1.88,0,3.37,1.58,3.26,3.46l-.67,11.17c0,6.84-2.37,13.47-7.09,19.87-3.67,4.97-8.27,9.15-13.82,12.54-2.12,1.29-2.01,4.41.18,5.59h0c1.16.58,3.49,2.37,6.98,5.35,3.49,2.99,6.77,7.68,9.82,14.08,3.06,6.41,4.58,13.03,4.58,19.87v12.02c0,1.8-1.46,3.27-3.27,3.27h-18.67c-1.77,0-3.22-1.41-3.27-3.17l-.33-11.46c0-9.17-3.6-16.63-10.81-22.38-7.2-5.75-16.46-8.63-27.79-8.63h-.48c-1.8,0-3.27,1.46-3.27,3.27v39.1c0,1.8-1.46,3.27-3.27,3.27h-18.78c-1.8,0-3.27-1.46-3.27-3.27v-150.91c0-1.8,1.46-3.27,3.27-3.27Z"/>
      <path class="cls-1" d="m741.37,550.85c0-11.38,4.07-21.04,12.22-28.99,8.15-7.95,17.97-11.93,29.46-11.93h3.27c1.69,0,3.06,1.37,3.06,3.06v17.91c0,1.69-1.37,3.06-3.06,3.06h0c-5.97,0-10.73,1.79-14.3,5.38-3.57,3.59-5.35,8.38-5.35,14.38v62.36c0,1.69-1.37,3.06-3.06,3.06h-19.21c-1.69,0-3.06-1.37-3.06-3.06v-65.21Z"/>
    </g>
    <path class="cls-1" d="m185,622.17l-85.75-45.21c-1-.53-1.63-1.57-1.63-2.7v-13.94c0-1.11.6-2.13,1.57-2.67l85.75-47.54c2.04-1.13,4.54.34,4.54,2.67v19.24c0,1.16-.65,2.21-1.68,2.73l-64.05,32.16v.57l63.97,29.91c1.07.5,1.76,1.58,1.76,2.77v19.3c0,2.3-2.45,3.78-4.48,2.7Z"/>
    <g>
      <path class="cls-1" d="m871.18,478.3l-64.89,178.15c-.81,2.22-2.93,3.71-5.29,3.71h-15.04c-3.91,0-6.63-3.88-5.3-7.56l64.71-178.15c.81-2.23,2.93-3.71,5.3-3.71h15.23c3.91,0,6.63,3.89,5.29,7.56Z"/>
      <path class="cls-1" d="m989.1,576.85l-86.34,45.12c-2.03,1.06-4.47-.41-4.47-2.71v-19.2c0-1.19.69-2.28,1.78-2.78l64.54-29.69v-.45l-64.63-32.05c-1.04-.52-1.7-1.58-1.7-2.74v-19.59c0-2.32,2.49-3.8,4.53-2.68l86.34,47.45c.98.54,1.58,1.56,1.58,2.68v13.92c0,1.14-.63,2.18-1.64,2.71Z"/>
    </g>
  </g>
</svg>