<svg xmlns="http://www.w3.org/2000/svg" xmlns:xlink="http://www.w3.org/1999/xlink" width="1080" zoomAndPan="magnify" viewBox="0 0 810 809.999993" height="1080" preserveAspectRatio="xMidYMid meet" version="1.0"><defs><clipPath id="9545b0144c"><path d="M 82 127.980469 L 728 127.980469 L 728 682 L 82 682 Z M 82 127.980469 " clip-rule="nonzero"/></clipPath></defs><g clip-path="url(#9545b0144c)"><path fill="#11cd8f" d="M 308.613281 127.746094 C 304.746094 127.746094 301.644531 130.886719 301.644531 134.71875 L 301.644531 170.335938 C 294.199219 172.710938 287.082031 175.628906 280.257812 179.167969 L 255.074219 154.023438 C 252.335938 151.324219 247.921875 151.324219 245.183594 154.023438 L 195.109375 204.097656 C 192.410156 206.832031 192.410156 211.25 195.109375 213.988281 L 199.964844 218.839844 L 138.6875 218.839844 C 119.417969 218.839844 103.6875 234.570312 103.6875 253.875 L 103.6875 626.171875 C 91.644531 629.3125 82.667969 640.296875 82.667969 653.289062 C 82.667969 668.691406 95.292969 681.316406 110.695312 681.316406 L 699.304688 681.316406 C 714.707031 681.316406 727.332031 668.691406 727.332031 653.289062 C 727.332031 640.296875 718.320312 629.3125 706.273438 626.171875 L 706.273438 253.875 C 706.273438 234.570312 690.546875 218.839844 671.273438 218.839844 L 488.101562 218.839844 L 492.957031 213.988281 C 495.691406 211.25 495.691406 206.832031 492.957031 204.097656 L 442.882812 154.023438 C 440.144531 151.285156 435.691406 151.285156 432.957031 154.023438 L 407.808594 179.167969 C 401.023438 175.628906 393.867188 172.710938 386.460938 170.335938 L 386.460938 134.71875 C 386.460938 130.847656 383.285156 127.746094 379.417969 127.746094 Z M 315.621094 141.761719 L 372.445312 141.761719 L 372.445312 174.9375 C 372.410156 178.074219 374.527344 180.847656 377.554688 181.6875 C 387.628906 184.460938 397.191406 188.476562 406.058594 193.476562 C 408.796875 195.046875 412.226562 194.570312 414.453125 192.34375 L 437.917969 168.878906 L 478.066406 209.058594 L 454.5625 232.488281 C 452.335938 234.714844 451.859375 238.183594 453.429688 240.921875 C 458.464844 249.789062 462.445312 259.316406 465.253906 269.386719 C 466.058594 272.453125 468.832031 274.570312 472.007812 274.570312 L 505.179688 274.570312 L 505.179688 331.320312 L 472.007812 331.320312 C 468.867188 331.320312 466.09375 333.4375 465.253906 336.46875 C 462.445312 346.503906 458.464844 356.027344 453.429688 364.898438 C 451.859375 367.636719 452.335938 371.101562 454.5625 373.328125 L 478.066406 396.832031 L 437.917969 436.976562 L 414.453125 413.472656 C 412.226562 411.285156 408.796875 410.808594 406.058594 412.34375 C 397.191406 417.378906 387.628906 421.355469 377.554688 424.128906 C 374.527344 424.96875 372.410156 427.742188 372.445312 430.917969 L 372.445312 464.058594 L 315.621094 464.058594 L 315.621094 430.917969 C 315.65625 427.742188 313.539062 424.96875 310.476562 424.128906 C 300.402344 421.355469 290.875 417.378906 282.042969 412.34375 C 279.269531 410.773438 275.839844 411.246094 273.613281 413.472656 L 250.109375 436.976562 L 209.964844 396.832031 L 233.46875 373.328125 C 235.695312 371.101562 236.167969 367.636719 234.601562 364.898438 C 229.5625 356.027344 225.585938 346.503906 222.8125 336.46875 C 221.972656 333.4375 219.199219 331.359375 216.058594 331.320312 L 182.847656 331.320312 L 182.847656 274.570312 L 216.058594 274.570312 C 219.234375 274.535156 221.972656 272.417969 222.8125 269.386719 C 225.585938 259.316406 229.5625 249.789062 234.601562 240.921875 C 236.167969 238.183594 235.695312 234.714844 233.46875 232.488281 L 209.964844 209.058594 L 250.109375 168.878906 L 273.613281 192.34375 C 275.839844 194.605469 279.269531 195.046875 282.042969 193.476562 C 290.875 188.476562 300.402344 184.460938 310.476562 181.6875 C 313.539062 180.847656 315.65625 178.074219 315.621094 174.9375 Z M 344.050781 207.417969 C 291.351562 207.417969 248.503906 250.261719 248.503906 302.964844 C 248.503906 355.628906 291.351562 398.4375 344.050781 398.4375 C 396.714844 398.4375 439.523438 355.628906 439.523438 302.964844 C 439.523438 250.261719 396.714844 207.417969 344.050781 207.417969 Z M 344.050781 221.433594 C 389.125 221.433594 425.511719 257.855469 425.511719 302.964844 C 425.511719 348.035156 389.125 384.421875 344.050781 384.421875 C 298.941406 384.421875 262.519531 348.035156 262.519531 302.964844 C 262.519531 257.855469 298.941406 221.433594 344.050781 221.433594 Z M 138.6875 232.855469 L 213.980469 232.855469 L 220.257812 239.167969 C 216.753906 245.992188 213.796875 253.109375 211.425781 260.519531 L 175.878906 260.519531 C 172.007812 260.519531 168.871094 263.65625 168.835938 267.527344 L 168.835938 338.328125 C 168.835938 342.234375 171.972656 345.371094 175.878906 345.371094 L 211.425781 345.371094 C 213.796875 352.746094 216.753906 359.859375 220.257812 366.6875 L 195.109375 391.867188 C 192.410156 394.605469 192.410156 398.984375 195.109375 401.722656 L 245.183594 451.792969 C 247.921875 454.53125 252.335938 454.53125 255.074219 451.792969 L 280.257812 426.683594 C 287.082031 430.1875 294.199219 433.144531 301.644531 435.515625 L 301.644531 471.101562 C 301.644531 474.96875 304.746094 478.070312 308.613281 478.070312 L 379.417969 478.070312 C 383.285156 478.109375 386.460938 474.96875 386.460938 471.101562 L 386.460938 435.515625 C 393.867188 433.144531 401.023438 430.1875 407.808594 426.683594 L 432.957031 451.792969 C 435.691406 454.570312 440.144531 454.570312 442.882812 451.792969 L 492.957031 401.722656 C 495.65625 398.984375 495.65625 394.605469 492.957031 391.867188 L 467.773438 366.6875 C 471.277344 359.859375 474.234375 352.746094 476.605469 345.371094 L 512.226562 345.371094 C 516.09375 345.335938 519.195312 342.195312 519.195312 338.328125 L 519.195312 267.527344 C 519.195312 263.65625 516.058594 260.554688 512.226562 260.519531 L 476.605469 260.519531 C 474.234375 253.109375 471.277344 245.992188 467.773438 239.167969 L 474.085938 232.855469 L 542.296875 232.855469 C 550.035156 254.753906 554.230469 278.367188 554.230469 302.964844 C 554.230469 331.976562 548.355469 359.570312 537.699219 384.714844 C 535.253906 390.519531 532.554688 396.210938 529.597656 401.757812 C 527.84375 401.285156 526.019531 400.992188 524.085938 400.992188 C 512.589844 400.992188 503.101562 410.554688 503.101562 422.085938 C 503.101562 433.582031 512.589844 443.070312 524.085938 443.070312 C 535.621094 443.070312 545.144531 433.582031 545.144531 422.085938 C 545.144531 417.523438 543.683594 413.292969 541.167969 409.859375 C 544.632812 403.472656 547.808594 396.941406 550.621094 390.226562 C 561.96875 363.363281 568.285156 333.875 568.285156 302.964844 C 568.285156 278.511719 564.339844 254.898438 557.117188 232.855469 L 671.273438 232.855469 C 683.027344 232.855469 692.261719 242.089844 692.261719 253.875 L 692.261719 625.261719 L 641.09375 625.261719 L 641.09375 576.210938 C 641.128906 572.339844 637.992188 569.203125 634.121094 569.164062 L 606.894531 569.164062 C 605.179688 563.945312 603.101562 558.910156 600.65625 554.054688 L 619.886719 534.894531 C 622.625 532.160156 622.625 527.671875 619.886719 524.933594 L 580.253906 485.335938 C 577.515625 482.597656 573.0625 482.597656 570.328125 485.335938 L 551.09375 504.566406 C 546.238281 502.121094 541.203125 499.96875 535.984375 498.253906 L 535.984375 471.101562 C 536.019531 467.234375 532.882812 464.09375 529.011719 464.058594 L 472.957031 464.058594 C 469.085938 464.09375 465.949219 467.234375 465.949219 471.101562 L 465.949219 498.253906 C 460.730469 499.96875 455.691406 502.121094 450.839844 504.566406 L 431.605469 485.335938 C 428.867188 482.5625 424.414062 482.5625 421.679688 485.335938 L 382.042969 524.933594 C 379.308594 527.671875 379.308594 532.160156 382.042969 534.894531 L 401.3125 554.054688 C 398.867188 558.910156 396.789062 563.945312 395.035156 569.164062 L 367.847656 569.164062 C 363.976562 569.203125 360.839844 572.339844 360.839844 576.210938 L 360.839844 625.261719 L 327.007812 625.261719 C 326.203125 618.363281 325.765625 611.355469 325.765625 604.238281 C 325.765625 580.042969 330.695312 556.976562 339.5625 536.027344 C 340.914062 532.816406 342.335938 529.675781 343.867188 526.574219 C 345.511719 526.976562 347.191406 527.195312 348.90625 527.195312 C 360.4375 527.195312 369.964844 517.632812 369.964844 506.101562 C 369.964844 494.605469 360.4375 485.117188 348.90625 485.117188 C 337.371094 485.117188 327.921875 494.605469 327.921875 506.101562 C 327.921875 510.808594 329.488281 515.226562 332.152344 518.726562 C 330.183594 522.597656 328.359375 526.574219 326.644531 530.589844 C 317.082031 553.21875 311.753906 578.144531 311.753906 604.238281 C 311.753906 611.355469 312.152344 618.363281 312.921875 625.261719 L 117.703125 625.261719 L 117.703125 253.875 C 117.703125 242.089844 126.9375 232.855469 138.6875 232.855469 Z M 524.085938 415.042969 C 526.496094 415.042969 531.128906 417.050781 531.128906 422.085938 C 531.128906 426.027344 528.066406 429.058594 524.085938 429.058594 C 520.144531 429.058594 517.117188 426.027344 517.117188 422.085938 C 517.117188 417.085938 521.714844 415.042969 524.085938 415.042969 Z M 479.960938 478.070312 L 521.96875 478.070312 L 521.96875 502.925781 C 521.96875 506.0625 524.085938 508.875 527.152344 509.675781 C 535 511.867188 542.40625 514.933594 549.34375 518.839844 C 552.078125 520.40625 555.546875 519.933594 557.773438 517.707031 L 575.328125 500.1875 L 605 529.894531 L 587.480469 547.449219 C 585.21875 549.675781 584.78125 553.144531 586.3125 555.882812 C 590.253906 562.777344 593.355469 570.222656 595.507812 578.070312 C 596.386719 581.101562 599.160156 583.21875 602.296875 583.179688 L 627.078125 583.179688 L 627.078125 625.261719 L 575.144531 625.261719 C 577.042969 618.546875 578.0625 611.5 578.0625 604.238281 C 578.0625 561.757812 543.464844 527.160156 500.984375 527.160156 C 458.464844 527.160156 423.90625 561.757812 423.90625 604.238281 C 423.90625 611.5 424.925781 618.546875 426.789062 625.261719 L 374.855469 625.261719 L 374.855469 583.179688 L 399.636719 583.179688 C 402.808594 583.21875 405.582031 581.101562 406.421875 578.070312 C 408.578125 570.222656 411.714844 562.777344 415.621094 555.882812 C 417.191406 553.144531 416.714844 549.675781 414.488281 547.449219 L 396.972656 529.894531 L 426.640625 500.1875 L 444.195312 517.707031 C 446.421875 519.933594 449.890625 520.40625 452.628906 518.839844 C 459.523438 514.933594 466.96875 511.867188 474.816406 509.675781 C 477.847656 508.875 480 506.0625 479.960938 502.925781 Z M 348.90625 499.128906 C 352.847656 499.128906 355.949219 502.160156 355.949219 506.101562 C 355.949219 510.078125 352.847656 513.144531 348.90625 513.144531 C 344.964844 513.144531 341.898438 510.078125 341.898438 506.101562 C 341.898438 502.160156 344.964844 499.128906 348.90625 499.128906 Z M 500.984375 541.136719 C 535.875 541.136719 564.050781 569.3125 564.050781 604.238281 C 564.050781 611.609375 562.773438 618.691406 560.472656 625.261719 L 441.53125 625.261719 C 439.195312 618.691406 437.917969 611.648438 437.917969 604.238281 C 437.917969 569.3125 466.058594 541.136719 500.984375 541.136719 Z M 110.695312 639.273438 L 699.304688 639.273438 C 707.1875 639.273438 713.320312 645.40625 713.320312 653.289062 C 713.320312 661.171875 707.1875 667.304688 699.304688 667.304688 L 110.695312 667.304688 C 102.8125 667.304688 96.679688 661.171875 96.679688 653.289062 C 96.679688 645.40625 102.8125 639.273438 110.695312 639.273438 Z M 362.921875 646.246094 C 359.050781 646.246094 355.914062 649.421875 355.949219 653.289062 C 355.949219 657.121094 359.089844 660.222656 362.921875 660.261719 L 447.007812 660.261719 C 450.875 660.261719 454.015625 657.121094 454.015625 653.289062 C 454.015625 649.382812 450.910156 646.246094 447.007812 646.246094 Z M 362.921875 646.246094 " fill-opacity="1" fill-rule="nonzero"/></g></svg>