<svg xmlns="http://www.w3.org/2000/svg" xmlns:xlink="http://www.w3.org/1999/xlink" width="1080" zoomAndPan="magnify" viewBox="0 0 810 809.999993" height="1080" preserveAspectRatio="xMidYMid meet" version="1.0"><defs><clipPath id="e5723a6f08"><path d="M 81 97 L 729 97 L 729 714.328125 L 81 714.328125 Z M 81 97 " clip-rule="nonzero"/></clipPath></defs><g clip-path="url(#e5723a6f08)"><path fill="#11cd8f" d="M 220.265625 313.199219 L 220.265625 295.679688 L 220.644531 295.550781 L 233.089844 307.992188 C 237.53125 312.4375 245.277344 312.4375 249.71875 307.992188 L 278.414062 279.300781 C 282.859375 274.730469 282.859375 267.363281 278.414062 262.792969 L 265.972656 250.351562 L 266.097656 249.96875 L 283.621094 249.96875 C 290.097656 249.96875 295.300781 244.765625 295.300781 238.289062 L 295.300781 197.660156 C 295.300781 191.183594 290.097656 185.980469 283.621094 185.980469 L 266.097656 185.980469 L 265.972656 185.597656 L 278.414062 173.15625 C 282.859375 168.585938 282.859375 161.222656 278.414062 156.652344 L 249.71875 127.957031 C 245.277344 123.511719 237.53125 123.511719 233.089844 127.957031 L 220.644531 140.398438 C 220.519531 140.398438 220.390625 140.273438 220.265625 140.273438 L 220.265625 122.75 C 220.265625 116.277344 215.058594 111.070312 208.582031 111.070312 L 167.953125 111.070312 C 161.480469 111.070312 156.273438 116.277344 156.273438 122.75 L 156.273438 140.273438 C 156.148438 140.273438 156.019531 140.398438 156.019531 140.398438 L 143.449219 127.957031 C 139.007812 123.511719 131.261719 123.511719 126.945312 127.957031 L 98.25 156.652344 C 93.679688 160.96875 93.679688 168.839844 98.25 173.28125 C 98.25 173.28125 110.691406 185.726562 110.691406 185.726562 L 110.4375 185.980469 L 92.917969 185.980469 C 86.441406 185.980469 81.238281 191.183594 81.238281 197.660156 L 81.238281 238.289062 C 81.238281 244.765625 86.441406 249.96875 92.917969 249.96875 L 110.4375 249.96875 L 110.566406 250.351562 L 98.125 262.792969 C 93.550781 267.109375 93.550781 274.984375 98.125 279.425781 C 98.125 279.425781 126.816406 308.121094 126.816406 308.121094 C 131.261719 312.566406 139.007812 312.566406 143.324219 308.121094 L 155.765625 295.679688 C 155.894531 295.679688 156.019531 295.804688 156.148438 295.804688 L 156.148438 313.328125 C 156.148438 319.800781 161.351562 325.007812 167.828125 325.007812 L 208.457031 325.007812 C 214.933594 325.007812 220.265625 319.675781 220.265625 313.199219 Z M 206.425781 311.167969 L 169.984375 311.167969 L 169.984375 290.980469 C 170.113281 284.25 161.605469 283.742188 157.417969 281.203125 C 154.75 279.933594 151.574219 280.441406 149.542969 282.472656 L 135.199219 296.820312 L 109.421875 271.046875 L 123.769531 256.699219 C 128.59375 252.003906 123.007812 245.78125 121.867188 240.828125 C 120.976562 238.035156 118.3125 236.132812 115.390625 236.132812 L 95.074219 236.132812 L 95.074219 199.820312 L 115.265625 199.820312 C 122.121094 199.820312 122.375 191.820312 125.039062 187.25 C 126.308594 184.582031 125.800781 181.410156 123.769531 179.378906 L 109.421875 164.902344 L 135.199219 139.128906 L 149.542969 153.476562 C 154.496094 158.300781 159.957031 152.96875 165.414062 151.445312 C 168.207031 150.429688 169.984375 147.890625 169.984375 144.96875 L 169.984375 124.78125 L 206.425781 124.78125 L 206.425781 144.96875 C 206.425781 151.824219 214.550781 152.207031 219.121094 154.746094 C 221.789062 156.015625 224.960938 155.507812 226.992188 153.347656 L 241.214844 139.128906 L 266.988281 164.902344 L 252.640625 179.25 C 247.816406 184.074219 253.277344 189.789062 254.546875 195.121094 C 255.433594 197.914062 258.101562 199.820312 261.019531 199.820312 L 281.207031 199.820312 L 281.207031 236.257812 L 261.019531 236.257812 C 254.164062 236.257812 253.910156 244.257812 251.246094 248.828125 C 249.972656 251.496094 250.484375 254.667969 252.515625 256.699219 L 266.859375 271.046875 L 241.214844 296.820312 L 226.867188 282.472656 C 221.914062 277.648438 216.328125 283.109375 210.996094 284.503906 C 208.203125 285.519531 206.425781 288.058594 206.425781 290.980469 Z M 237.785156 217.976562 C 237.785156 190.675781 215.566406 168.457031 188.269531 168.457031 C 122.628906 170.742188 122.628906 265.207031 188.269531 267.617188 C 215.566406 267.492188 237.785156 245.273438 237.785156 217.976562 Z M 188.269531 253.78125 C 141.039062 252.257812 140.910156 183.695312 188.269531 182.171875 C 235.5 183.695312 235.5 252.257812 188.269531 253.78125 Z M 610.683594 490.953125 L 576.65625 490.953125 C 563.328125 454.511719 529.425781 427.597656 490.828125 425.691406 C 490.828125 425.691406 458.199219 411.597656 458.199219 411.597656 C 483.085938 399.917969 496.542969 378.585938 496.542969 350.019531 C 496.542969 350.019531 496.542969 286.15625 496.542969 286.15625 C 496.542969 225.210938 435.34375 179.757812 376.8125 197.914062 C 341.261719 209.085938 315.234375 241.972656 311.808594 278.917969 C 309.523438 302.40625 311.425781 326.402344 311.425781 349.894531 C 311.425781 378.839844 324.503906 399.789062 349.515625 411.472656 L 316.632812 425.691406 C 278.035156 427.722656 244.132812 454.640625 230.929688 490.953125 L 196.523438 490.953125 C 183.445312 490.570312 173.289062 504.792969 177.859375 517.105469 C 177.859375 517.105469 231.820312 675.050781 231.820312 675.050781 L 225.089844 675.050781 C 218.996094 675.050781 214.042969 680.003906 214.042969 686.097656 L 214.042969 703.367188 C 214.042969 709.460938 218.996094 714.410156 225.089844 714.410156 L 583.515625 714.410156 C 589.609375 714.410156 594.558594 709.460938 594.558594 703.367188 L 594.558594 686.097656 C 594.558594 680.003906 589.609375 675.050781 583.515625 675.050781 L 575.386719 675.050781 L 629.347656 517.105469 C 633.917969 504.792969 623.761719 490.570312 610.683594 490.953125 Z M 492.351562 439.785156 C 522.953125 441.941406 549.613281 463.019531 561.804688 490.953125 L 470.640625 490.953125 L 472.417969 487.269531 C 475.464844 480.285156 466.707031 476.222656 462.769531 471.652344 C 472.546875 461.113281 482.449219 450.449219 492.351562 439.785156 Z M 477.75 435.085938 C 468.355469 445.117188 457.308594 457.179688 447.914062 467.210938 C 441.691406 474.953125 453.246094 480.667969 457.5625 485.746094 L 455.152344 490.824219 L 434.582031 490.824219 L 448.675781 428.867188 C 448.804688 428.230469 448.804688 427.597656 448.804688 426.960938 L 449.058594 422.769531 Z M 374.402344 423.660156 C 374.148438 423.53125 373.894531 423.40625 373.640625 423.277344 C 375.542969 415.027344 380.496094 393.316406 382.398438 384.679688 C 396.875 391.410156 411.222656 391.410156 425.570312 384.425781 L 433.566406 421.246094 C 415.285156 430.644531 393.445312 431.40625 374.402344 423.660156 Z M 432.679688 436.992188 L 420.488281 490.953125 L 386.972656 490.953125 L 375.164062 438.640625 C 393.828125 444.738281 414.394531 444.101562 432.679688 436.992188 Z M 420.109375 371.859375 C 389.003906 389 349.261719 347.988281 341.898438 319.292969 C 341.644531 318.53125 339.867188 311.804688 339.992188 311.675781 C 342.40625 310.914062 344.945312 309.898438 346.976562 309.136719 C 360.941406 304.3125 374.273438 297.582031 386.589844 289.328125 C 389.636719 287.296875 421.378906 262.414062 420.363281 261.523438 C 434.964844 275.109375 451.597656 286.917969 469.5 295.679688 C 469.878906 328.179688 449.566406 358.78125 420.109375 371.859375 Z M 482.578125 350.019531 C 482.578125 376.554688 469.5 394.203125 443.597656 402.582031 L 438.136719 377.824219 C 462.386719 361.953125 479.019531 335.671875 482.578125 306.976562 Z M 441.820312 227.75 C 443.214844 224.832031 444.359375 222.039062 445.628906 219.371094 C 468.484375 233.464844 483.085938 259.492188 482.703125 286.664062 C 462.894531 278.15625 444.742188 265.585938 428.996094 250.730469 C 433.566406 243.242188 438.011719 235.625 441.820312 227.75 Z M 325.390625 280.1875 C 330.21875 229.148438 384.8125 193.34375 433.1875 213.023438 C 419.347656 249.082031 389.765625 275.363281 354.847656 290.601562 C 352.691406 291.617188 325.011719 302.28125 325.011719 301.136719 C 324.882812 294.28125 324.757812 287.042969 325.390625 280.1875 Z M 325.136719 350.019531 L 325.136719 315.230469 L 326.40625 314.976562 C 331.359375 339.734375 347.738281 364.492188 369.703125 377.953125 C 369.703125 378.207031 364.117188 402.203125 364.117188 402.457031 C 338.34375 394.078125 325.136719 376.429688 325.136719 350.019531 Z M 358.402344 422.769531 C 358.53125 423.914062 358.65625 427.851562 358.785156 428.992188 C 358.785156 428.992188 372.75 491.078125 372.75 491.078125 L 352.183594 491.078125 L 349.769531 486 C 354.214844 480.921875 365.894531 475.207031 359.417969 467.464844 C 349.515625 456.796875 339.484375 446.007812 329.582031 435.214844 Z M 262.035156 466.066406 C 275.875 450.957031 294.921875 441.308594 315.234375 439.785156 C 325.011719 450.449219 334.914062 461.113281 344.816406 471.78125 C 341.007812 476.351562 332.121094 480.285156 335.296875 487.398438 C 335.296875 487.398438 337.074219 491.078125 337.074219 491.078125 L 245.910156 491.078125 C 249.972656 481.683594 255.433594 473.175781 262.035156 466.066406 Z M 580.722656 688.890625 L 580.722656 700.699219 L 227.753906 700.699219 L 227.753906 688.890625 Z M 616.269531 512.664062 L 560.789062 675.050781 L 246.292969 675.050781 C 246.292969 675.050781 190.808594 512.664062 190.808594 512.664062 C 190.171875 510.757812 190.425781 508.855469 191.570312 507.203125 C 192.714844 505.554688 194.492188 504.664062 196.394531 504.664062 L 610.683594 504.664062 C 614.621094 504.664062 617.667969 508.855469 616.269531 512.664062 Z M 405 550.5 C 376.433594 549.101562 353.707031 575.636719 361.957031 602.683594 C 373.640625 641.660156 433.441406 642.550781 446.390625 603.953125 C 455.53125 577.289062 433.441406 549.992188 405 550.5 Z M 433.3125 599.636719 C 418.203125 637.980469 355.484375 613.09375 379.351562 575.636719 C 397.253906 551.894531 443.46875 568.019531 433.3125 599.636719 Z M 667.183594 153.09375 C 629.855469 118.5625 566.121094 142.683594 561.167969 193.472656 C 559.261719 210.609375 564.214844 227.371094 574.878906 240.703125 C 583.007812 250.730469 587.195312 261.90625 587.195312 273.207031 L 587.195312 300.375 C 588.339844 348.117188 660.710938 348.242188 661.980469 300.375 C 661.980469 280.316406 659.1875 257.460938 674.421875 240.703125 C 695.496094 215.183594 692.195312 174.679688 667.183594 153.09375 Z M 648.140625 300.25 C 647.886719 329.707031 601.289062 329.707031 600.910156 300.25 C 600.910156 300.25 600.910156 285.394531 600.910156 285.394531 L 648.140625 285.394531 Z M 663.628906 231.941406 C 653.980469 244.003906 648.648438 257.714844 648.140625 271.554688 L 600.910156 271.554688 C 600.527344 257.589844 595.195312 244.003906 585.546875 231.941406 C 577.164062 221.53125 573.230469 208.324219 574.753906 194.867188 C 578.308594 155.382812 629.09375 136.082031 657.917969 163.253906 C 677.597656 180.265625 680.390625 212.132812 663.628906 231.941406 Z M 551.011719 275.492188 C 544.535156 268.632812 554.820312 262.539062 558.882812 257.96875 C 561.550781 255.304688 565.992188 255.304688 568.660156 257.96875 C 571.324219 260.636719 571.324219 265.078125 568.660156 267.746094 C 563.960938 271.683594 557.867188 281.964844 551.011719 275.492188 Z M 698.292969 128.210938 C 700.957031 130.875 700.957031 135.320312 698.292969 137.988281 C 693.71875 141.921875 687.625 152.207031 680.769531 145.859375 C 674.292969 139.003906 684.578125 132.90625 688.640625 128.335938 C 691.179688 125.542969 695.625 125.542969 698.292969 128.210938 Z M 520.410156 201.851562 C 520.410156 198.042969 523.460938 194.996094 527.269531 194.996094 L 538.3125 194.996094 C 542.125 194.996094 545.171875 198.042969 545.171875 201.851562 C 545.171875 205.660156 542.125 208.707031 538.3125 208.707031 L 527.269531 208.707031 C 523.585938 208.707031 520.410156 205.660156 520.410156 201.851562 Z M 728.761719 201.851562 C 728.761719 205.660156 725.714844 208.707031 721.90625 208.707031 L 710.859375 208.707031 C 707.050781 208.707031 704.003906 205.660156 704.003906 201.851562 C 704.003906 198.042969 707.050781 194.996094 710.859375 194.996094 L 721.90625 194.996094 C 725.714844 194.996094 728.761719 198.042969 728.761719 201.851562 Z M 551.011719 137.988281 C 544.664062 131.636719 554.3125 121.863281 560.789062 128.210938 C 560.789062 128.210938 568.660156 136.082031 568.660156 136.082031 C 575.007812 142.429688 565.359375 152.207031 558.882812 145.859375 C 558.753906 145.730469 551.011719 137.988281 551.011719 137.988281 Z M 698.292969 265.714844 C 704.640625 272.0625 694.988281 281.839844 688.515625 275.492188 C 688.515625 275.492188 680.644531 267.617188 680.644531 267.617188 C 674.292969 261.269531 683.945312 251.496094 690.417969 257.84375 C 690.417969 257.96875 698.292969 265.714844 698.292969 265.714844 Z M 617.667969 115.640625 L 617.667969 104.59375 C 617.667969 95.578125 631.378906 95.578125 631.507812 104.59375 C 631.507812 104.59375 631.507812 115.640625 631.507812 115.640625 C 631.507812 124.65625 617.792969 124.65625 617.667969 115.640625 Z M 617.667969 115.640625 " fill-opacity="1" fill-rule="nonzero"/></g></svg>